<svg width="8" height="14" viewBox="0 0 8 14" fill="none" xmlns="http://www.w3.org/2000/svg">
<path d="M5.14286 0C6.72081 0 8 1.30584 8 2.91667V9.91667C8 12.1718 6.20914 14 4 14C1.79086 14 0 12.1718 0 9.91667V5.25H1.14286V9.91667C1.14286 11.5275 2.42204 12.8333 4 12.8333C5.57796 12.8333 6.85714 11.5275 6.85714 9.91667V2.91667C6.85714 1.95017 6.08963 1.16667 5.14286 1.16667C4.19608 1.16667 3.42857 1.95017 3.42857 2.91667V9.91667C3.42857 10.2388 3.68441 10.5 4 10.5C4.31559 10.5 4.57143 10.2388 4.57143 9.91667V3.5H5.71429V9.91667C5.71429 10.8832 4.94677 11.6667 4 11.6667C3.05323 11.6667 2.28571 10.8832 2.28571 9.91667V2.91667C2.28571 1.30584 3.5649 0 5.14286 0Z" fill="currentColor"/>
</svg>
