<svg width="16" height="8" viewBox="0 0 16 8" fill="none" xmlns="http://www.w3.org/2000/svg">
<path fill-rule="evenodd" clip-rule="evenodd" d="M1.925 4C1.925 2.7175 2.9675 1.675 4.25 1.675H7.25V0.25H4.25C2.18 0.25 0.5 1.93 0.5 4C0.5 6.07 2.18 7.75 4.25 7.75H7.25V6.325H4.25C2.9675 6.325 1.925 5.2825 1.925 4ZM5 4.75H11V3.25H5V4.75ZM8.75 0.25H11.75C13.82 0.25 15.5 1.93 15.5 4C15.5 6.07 13.82 7.75 11.75 7.75H8.75V6.325H11.75C13.0325 6.325 14.075 5.2825 14.075 4C14.075 2.7175 13.0325 1.675 11.75 1.675H8.75V0.25Z" fill="currentColor"/>
</svg>
