<svg width="14" height="12" viewBox="0 0 14 12" fill="none" xmlns="http://www.w3.org/2000/svg">
<path fill-rule="evenodd" clip-rule="evenodd" d="M0.0625 1.5C0.0625 0.8775 0.565 0.375 1.1875 0.375C1.81 0.375 2.3125 0.8775 2.3125 1.5C2.3125 2.1225 1.81 2.625 1.1875 2.625C0.565 2.625 0.0625 2.1225 0.0625 1.5ZM0.0625 6C0.0625 5.3775 0.565 4.875 1.1875 4.875C1.81 4.875 2.3125 5.3775 2.3125 6C2.3125 6.6225 1.81 7.125 1.1875 7.125C0.565 7.125 0.0625 6.6225 0.0625 6ZM1.1875 9.375C0.565 9.375 0.0625 9.885 0.0625 10.5C0.0625 11.115 0.5725 11.625 1.1875 11.625C1.8025 11.625 2.3125 11.115 2.3125 10.5C2.3125 9.885 1.81 9.375 1.1875 9.375ZM13.9375 11.25H3.4375V9.75H13.9375V11.25ZM3.4375 6.75H13.9375V5.25H3.4375V6.75ZM3.4375 2.25V0.75H13.9375V2.25H3.4375Z" fill="currentColor"/>
</svg>
